<?xml version="1.0" encoding="UTF-8"?>
<svg width="900" height="980" viewBox="0 0 900 980" fill="none"
     xmlns="http://www.w3.org/2000/svg">
  <rect width="900" height="980" rx="60" fill="#FFFFFF"/>

  <!-- Icon -->
  <g transform="translate(194,90)">
    <defs>
    <radialGradient id="sphereGrad" cx="40%" cy="35%" r="70%">
      <stop offset="0%" stop-color="#FFFFFF" stop-opacity="0.92"/>
      <stop offset="45%" stop-color="#14B8A6" stop-opacity="0.95"/>
      <stop offset="100%" stop-color="#2563EB" stop-opacity="1"/>
    </radialGradient>

    <linearGradient id="cubeTopGrad" x1="-20" y1="-20" x2="20" y2="10" gradientUnits="userSpaceOnUse">
      <stop stop-color="#14B8A6" stop-opacity="1"/>
      <stop offset="1" stop-color="#2563EB" stop-opacity="1"/>
    </linearGradient>

    <filter id="softShadow" x="-25%" y="-25%" width="150%" height="150%">
      <feDropShadow dx="0" dy="6" stdDeviation="8" flood-color="#0B1220" flood-opacity="0.18"/>
    </filter>

    
    <g id="cube">
      <polygon points="0.00,-13.20 12.00,-6.60 0.00,0.00 -12.00,-6.60" fill="url(#cubeTopGrad)" stroke="#0B1220" stroke-opacity="0.10" stroke-width="1.2"/>
      <polygon points="0.00,0.00 -12.00,-6.60 -12.00,6.60 0.00,13.20" fill="#2563EB" opacity="0.96" stroke="#0B1220" stroke-opacity="0.10" stroke-width="1.2"/>
      <polygon points="0.00,0.00 12.00,-6.60 12.00,6.60 0.00,13.20" fill="#7C3AED" opacity="0.90" stroke="#0B1220" stroke-opacity="0.10" stroke-width="1.2"/>
      <path d="M 0 0 L 12.00 -6.60" stroke="#FFFFFF" stroke-opacity="0.35" stroke-width="1.2" stroke-linecap="round"/>
      <path d="M 0 0 L -12.00 -6.60" stroke="#FFFFFF" stroke-opacity="0.25" stroke-width="1.2" stroke-linecap="round"/>
    </g>
    
  </defs>

  <!-- Outer C -->
  <path d="M 404.6 380.7 A 194.0 194.0 0 1 1 404.6 131.3" stroke="#2563EB" stroke-width="14" stroke-linecap="round" opacity="0.92"/>
  <circle cx="404.6" cy="380.7" r="5.0" fill="#14B8A6" opacity="0.75"/>
  <circle cx="404.6" cy="131.3" r="5.0" fill="#7C3AED" opacity="0.70"/>

  <!-- Interlaced network -->
  <g stroke="#2563EB" stroke-width="3.6" stroke-linecap="round" stroke-linejoin="round" opacity="0.55">
    <path d="M 256.0 106.0 L 331.0 126.1" /><path d="M 331.0 126.1 L 385.9 181.0" /><path d="M 385.9 181.0 L 406.0 256.0" /><path d="M 406.0 256.0 L 385.9 331.0" /><path d="M 385.9 331.0 L 331.0 385.9" /><path d="M 331.0 385.9 L 256.0 406.0" /><path d="M 256.0 406.0 L 181.0 385.9" /><path d="M 181.0 385.9 L 126.1 331.0" /><path d="M 126.1 331.0 L 106.0 256.0" /><path d="M 106.0 256.0 L 126.1 181.0" /><path d="M 126.1 181.0 L 181.0 126.1" /><path d="M 181.0 126.1 L 256.0 106.0" />
  </g>

  <g stroke="#14B8A6" stroke-width="3.2" stroke-linecap="round" stroke-linejoin="round" opacity="0.60">
    <path d="M 256.0 106.0 L 256.0 184.0" /><path d="M 331.0 126.1 L 292.0 193.6" /><path d="M 385.9 181.0 L 318.4 220.0" /><path d="M 406.0 256.0 L 328.0 256.0" /><path d="M 385.9 331.0 L 318.4 292.0" /><path d="M 331.0 385.9 L 292.0 318.4" /><path d="M 256.0 406.0 L 256.0 328.0" /><path d="M 181.0 385.9 L 220.0 318.4" /><path d="M 126.1 331.0 L 193.6 292.0" /><path d="M 106.0 256.0 L 184.0 256.0" /><path d="M 126.1 181.0 L 193.6 220.0" /><path d="M 181.0 126.1 L 220.0 193.6" />
  </g>

  <g stroke="#7C3AED" stroke-width="2.8" stroke-linecap="round" stroke-linejoin="round" opacity="0.45">
    <path d="M 256.0 184.0 L 318.4 220.0" /><path d="M 292.0 193.6 L 328.0 256.0" /><path d="M 318.4 220.0 L 318.4 292.0" /><path d="M 328.0 256.0 L 292.0 318.4" /><path d="M 318.4 292.0 L 256.0 328.0" /><path d="M 292.0 318.4 L 220.0 318.4" /><path d="M 256.0 328.0 L 193.6 292.0" /><path d="M 220.0 318.4 L 184.0 256.0" /><path d="M 193.6 292.0 L 193.6 220.0" /><path d="M 184.0 256.0 L 220.0 193.6" /><path d="M 193.6 220.0 L 256.0 184.0" /><path d="M 220.0 193.6 L 292.0 193.6" />
  </g>

  <!-- Inner hub ring -->
  <circle cx="256" cy="256" r="72" stroke="#2563EB" stroke-width="6" opacity="0.45"/>

  <!-- Node dots and cubes -->
  <circle cx="256.0" cy="106.0" r="6.2" fill="#14B8A6" opacity="0.95"/>
<circle cx="331.0" cy="126.1" r="6.2" fill="#14B8A6" opacity="0.95"/>
<circle cx="385.9" cy="181.0" r="6.2" fill="#14B8A6" opacity="0.95"/>
<circle cx="406.0" cy="256.0" r="6.2" fill="#14B8A6" opacity="0.95"/>
<circle cx="385.9" cy="331.0" r="6.2" fill="#14B8A6" opacity="0.95"/>
<circle cx="331.0" cy="385.9" r="6.2" fill="#14B8A6" opacity="0.95"/>
<circle cx="256.0" cy="406.0" r="6.2" fill="#14B8A6" opacity="0.95"/>
<circle cx="181.0" cy="385.9" r="6.2" fill="#14B8A6" opacity="0.95"/>
<circle cx="126.1" cy="331.0" r="6.2" fill="#14B8A6" opacity="0.95"/>
<circle cx="106.0" cy="256.0" r="6.2" fill="#14B8A6" opacity="0.95"/>
<circle cx="126.1" cy="181.0" r="6.2" fill="#14B8A6" opacity="0.95"/>
<circle cx="181.0" cy="126.1" r="6.2" fill="#14B8A6" opacity="0.95"/>
  <g filter="url(#softShadow)">
    <use href="#cube" transform="translate(256.0,106.0)" />
<use href="#cube" transform="translate(331.0,126.1)" />
<use href="#cube" transform="translate(385.9,181.0)" />
<use href="#cube" transform="translate(406.0,256.0)" />
<use href="#cube" transform="translate(385.9,331.0)" />
<use href="#cube" transform="translate(331.0,385.9)" />
<use href="#cube" transform="translate(256.0,406.0)" />
<use href="#cube" transform="translate(181.0,385.9)" />
<use href="#cube" transform="translate(126.1,331.0)" />
<use href="#cube" transform="translate(106.0,256.0)" />
<use href="#cube" transform="translate(126.1,181.0)" />
<use href="#cube" transform="translate(181.0,126.1)" />
  </g>

  <!-- Center sphere + check -->
  <g filter="url(#softShadow)">
    <circle cx="256" cy="256" r="54" fill="url(#sphereGrad)"/>
    <circle cx="256" cy="256" r="54" fill="none" stroke="#FFFFFF" stroke-opacity="0.25" stroke-width="2"/>
    <path d="M 238 258 L 251 271 L 276 244" stroke="#FFFFFF" stroke-width="14" stroke-linecap="round" stroke-linejoin="round"/>
  </g>
  </g>

  <!-- Wordmark -->
  <text x="450" y="735" text-anchor="middle"
        font-family="Inter, system-ui, -apple-system, Segoe UI, Roboto, Arial"
        font-weight="300" font-size="86" letter-spacing="10"
        fill="#2563EB">
    COGNUS
  </text>

  <text x="450" y="805" text-anchor="middle"
        font-family="Inter, system-ui, -apple-system, Segoe UI, Roboto, Arial"
        font-weight="600" font-size="22" letter-spacing="1.2"
        fill="#0B1220" opacity="0.72">
    Orquestração e Governança Descentralizada • Permissioned Blockchains
  </text>
</svg>
