<?xml version="1.0" encoding="UTF-8"?>
<svg width="512" height="512" viewBox="0 0 512 512" fill="none"
     xmlns="http://www.w3.org/2000/svg">
  <defs>
    <radialGradient id="sphereGrad" cx="40%" cy="35%" r="70%">
      <stop offset="0%" stop-color="#FFFFFF" stop-opacity="0.92"/>
      <stop offset="45%" stop-color="#14B8A6" stop-opacity="0.95"/>
      <stop offset="100%" stop-color="#2563EB" stop-opacity="1"/>
    </radialGradient>

    <linearGradient id="cubeTopGrad" x1="-20" y1="-20" x2="20" y2="10" gradientUnits="userSpaceOnUse">
      <stop stop-color="#14B8A6" stop-opacity="1"/>
      <stop offset="1" stop-color="#2563EB" stop-opacity="1"/>
    </linearGradient>

    <filter id="softShadow" x="-25%" y="-25%" width="150%" height="150%">
      <feDropShadow dx="0" dy="6" stdDeviation="8" flood-color="#0B1220" flood-opacity="0.18"/>
    </filter>

    
    <g id="cube">
      <polygon points="0.00,-13.20 12.00,-6.60 0.00,0.00 -12.00,-6.60" fill="url(#cubeTopGrad)" stroke="#0B1220" stroke-opacity="0.10" stroke-width="1.2"/>
      <polygon points="0.00,0.00 -12.00,-6.60 -12.00,6.60 0.00,13.20" fill="#2563EB" opacity="0.96" stroke="#0B1220" stroke-opacity="0.10" stroke-width="1.2"/>
      <polygon points="0.00,0.00 12.00,-6.60 12.00,6.60 0.00,13.20" fill="#7C3AED" opacity="0.90" stroke="#0B1220" stroke-opacity="0.10" stroke-width="1.2"/>
      <path d="M 0 0 L 12.00 -6.60" stroke="#FFFFFF" stroke-opacity="0.35" stroke-width="1.2" stroke-linecap="round"/>
      <path d="M 0 0 L -12.00 -6.60" stroke="#FFFFFF" stroke-opacity="0.25" stroke-width="1.2" stroke-linecap="round"/>
    </g>
    
  </defs>

  <circle cx="256" cy="256" r="194" stroke="#2563EB" stroke-width="10" opacity="0.92"/>

  <g stroke="#2563EB" stroke-width="3.6" stroke-linecap="round" stroke-linejoin="round" opacity="0.55">
    <path d="M 256.0 106.0 L 331.0 126.1" /><path d="M 331.0 126.1 L 385.9 181.0" /><path d="M 385.9 181.0 L 406.0 256.0" /><path d="M 406.0 256.0 L 385.9 331.0" /><path d="M 385.9 331.0 L 331.0 385.9" /><path d="M 331.0 385.9 L 256.0 406.0" /><path d="M 256.0 406.0 L 181.0 385.9" /><path d="M 181.0 385.9 L 126.1 331.0" /><path d="M 126.1 331.0 L 106.0 256.0" /><path d="M 106.0 256.0 L 126.1 181.0" /><path d="M 126.1 181.0 L 181.0 126.1" /><path d="M 181.0 126.1 L 256.0 106.0" />
  </g>

  <g stroke="#14B8A6" stroke-width="3.2" stroke-linecap="round" stroke-linejoin="round" opacity="0.60">
    <path d="M 256.0 106.0 L 256.0 184.0" /><path d="M 331.0 126.1 L 292.0 193.6" /><path d="M 385.9 181.0 L 318.4 220.0" /><path d="M 406.0 256.0 L 328.0 256.0" /><path d="M 385.9 331.0 L 318.4 292.0" /><path d="M 331.0 385.9 L 292.0 318.4" /><path d="M 256.0 406.0 L 256.0 328.0" /><path d="M 181.0 385.9 L 220.0 318.4" /><path d="M 126.1 331.0 L 193.6 292.0" /><path d="M 106.0 256.0 L 184.0 256.0" /><path d="M 126.1 181.0 L 193.6 220.0" /><path d="M 181.0 126.1 L 220.0 193.6" />
  </g>

  <g stroke="#7C3AED" stroke-width="2.8" stroke-linecap="round" stroke-linejoin="round" opacity="0.45">
    <path d="M 256.0 184.0 L 318.4 220.0" /><path d="M 292.0 193.6 L 328.0 256.0" /><path d="M 318.4 220.0 L 318.4 292.0" /><path d="M 328.0 256.0 L 292.0 318.4" /><path d="M 318.4 292.0 L 256.0 328.0" /><path d="M 292.0 318.4 L 220.0 318.4" /><path d="M 256.0 328.0 L 193.6 292.0" /><path d="M 220.0 318.4 L 184.0 256.0" /><path d="M 193.6 292.0 L 193.6 220.0" /><path d="M 184.0 256.0 L 220.0 193.6" /><path d="M 193.6 220.0 L 256.0 184.0" /><path d="M 220.0 193.6 L 292.0 193.6" />
  </g>

  <circle cx="256" cy="256" r="72" stroke="#2563EB" stroke-width="6" opacity="0.45"/>

  <circle cx="256.0" cy="106.0" r="6.2" fill="#14B8A6" opacity="0.95"/>
<circle cx="331.0" cy="126.1" r="6.2" fill="#14B8A6" opacity="0.95"/>
<circle cx="385.9" cy="181.0" r="6.2" fill="#14B8A6" opacity="0.95"/>
<circle cx="406.0" cy="256.0" r="6.2" fill="#14B8A6" opacity="0.95"/>
<circle cx="385.9" cy="331.0" r="6.2" fill="#14B8A6" opacity="0.95"/>
<circle cx="331.0" cy="385.9" r="6.2" fill="#14B8A6" opacity="0.95"/>
<circle cx="256.0" cy="406.0" r="6.2" fill="#14B8A6" opacity="0.95"/>
<circle cx="181.0" cy="385.9" r="6.2" fill="#14B8A6" opacity="0.95"/>
<circle cx="126.1" cy="331.0" r="6.2" fill="#14B8A6" opacity="0.95"/>
<circle cx="106.0" cy="256.0" r="6.2" fill="#14B8A6" opacity="0.95"/>
<circle cx="126.1" cy="181.0" r="6.2" fill="#14B8A6" opacity="0.95"/>
<circle cx="181.0" cy="126.1" r="6.2" fill="#14B8A6" opacity="0.95"/>

  <g filter="url(#softShadow)">
    <use href="#cube" transform="translate(256.0,106.0)" />
<use href="#cube" transform="translate(331.0,126.1)" />
<use href="#cube" transform="translate(385.9,181.0)" />
<use href="#cube" transform="translate(406.0,256.0)" />
<use href="#cube" transform="translate(385.9,331.0)" />
<use href="#cube" transform="translate(331.0,385.9)" />
<use href="#cube" transform="translate(256.0,406.0)" />
<use href="#cube" transform="translate(181.0,385.9)" />
<use href="#cube" transform="translate(126.1,331.0)" />
<use href="#cube" transform="translate(106.0,256.0)" />
<use href="#cube" transform="translate(126.1,181.0)" />
<use href="#cube" transform="translate(181.0,126.1)" />
  </g>

  <g filter="url(#softShadow)">
    <circle cx="256" cy="256" r="54" fill="url(#sphereGrad)"/>
    <circle cx="256" cy="256" r="54" fill="none" stroke="#FFFFFF" stroke-opacity="0.25" stroke-width="2"/>
    <path d="M 238 258 L 251 271 L 276 244" stroke="#FFFFFF" stroke-width="14" stroke-linecap="round" stroke-linejoin="round"/>
  </g>
</svg>
